<svg xmlns="http://www.w3.org/2000/svg" viewBox="0 0 94.12 94.12"><defs><style>.cls-1{fill:#010101;}.cls-2{fill:#bb814d;}</style></defs><title>Asset 2</title><g id="Layer_2" data-name="Layer 2"><g id="Layer_1-2" data-name="Layer 1"><circle class="cls-1" cx="47.06" cy="47.06" r="47.06"/><path class="cls-2" d="M32.55,49.35q-.25,4.31-.49,8.62c0,.7-.09,1.4-.14,2.15-.42,0-.81,0-1.19,0A1.45,1.45,0,0,0,29.33,62,1.53,1.53,0,0,0,31,63h35.7a1.47,1.47,0,1,0,0-2.9h-1c0-.43-.05-.8-.07-1.17q-.21-3.6-.41-7.19c-.16-2.7-.32-5.41-.47-8.11a.93.93,0,0,1,.81-1c.6-.11.89-.42.84-.9a.85.85,0,0,0-1-.74H59.05c-.58,0-1,.3-1,.75s.27.78.86.89a.9.9,0,0,1,.8.92c0,.26,0,.52,0,.78Q59.33,50.64,59,57c-.06,1-.13,2.05-.2,3.14h-.52c-1.83,0-3.66,0-5.5,0-.42,0-.51-.15-.53-.53-.05-1.37-.13-2.74-.21-4.1q-.34-5.88-.69-11.75a1,1,0,0,1,.9-1.15.81.81,0,0,0,.76-.88.82.82,0,0,0-.86-.74q-3.3,0-6.6,0a.82.82,0,0,0-.86.74.81.81,0,0,0,.76.88.94.94,0,0,1,.9,1.11c0,.68-.07,1.35-.11,2q-.4,7-.8,13.92c0,.34-.09.48-.47.48q-2.82,0-5.63,0c-.37,0-.46-.11-.48-.47-.08-1.84-.19-3.69-.3-5.53-.2-3.46-.41-6.91-.61-10.37,0-.73.21-1,.93-1.17a.8.8,0,0,0,.72-.86.84.84,0,0,0-.8-.75c-.15,0-.31,0-.46,0H33.54c-.49,0-1,0-1.48,0a.81.81,0,0,0-.83.76.8.8,0,0,0,.74.85c.71.14,1,.49.92,1.23Q32.71,46.58,32.55,49.35Z"/><path class="cls-2" d="M71.33,35.29l-.2-.11L50,24.2a2.34,2.34,0,0,0-2.33,0c-3.5,1.83-7,3.64-10.52,5.46L26.26,35.29a1,1,0,0,0-.53,1.63c.21.43.44.85.64,1.28a1.85,1.85,0,0,0,1.84,1.14h41.2a1.85,1.85,0,0,0,1.84-1.14c.19-.42.41-.82.62-1.24A1.07,1.07,0,0,0,71.33,35.29Z"/><path class="cls-2" d="M69.44,64.65H28.1a1.44,1.44,0,0,0-1.59,1.52c0,.85.68,1.38,1.69,1.38H69.45A1.49,1.49,0,0,0,71,66.49,1.48,1.48,0,0,0,69.44,64.65Z"/></g></g></svg>