<svg xmlns="http://www.w3.org/2000/svg" viewBox="0 0 40.06 43.83"><defs><style>.cls-1{fill:#ba804c;}</style></defs><title>Asset 3</title><g id="Layer_2" data-name="Layer 2"><g id="Layer_1-2" data-name="Layer 1"><path class="cls-1" d="M20,36.49s12.83-9.34,12.83-23.66a12.83,12.83,0,1,0-25.66,0C7.2,27.16,20,36.49,20,36.49M12.76,13.9A7.27,7.27,0,1,1,20,21.17a7.3,7.3,0,0,1-7.27-7.27m27.3,22.74c0,4.7-10.12,7.2-20,7.2S0,41.34,0,36.63C0,33.28,5.2,31,11.83,30.08A22.56,22.56,0,0,0,13.33,32c-7.06.86-11.19,3-11.19,4.63C2.14,38.77,9,41.69,20,41.69s17.89-2.92,17.89-5.06c0-1.64-4.13-3.78-11.19-4.63l1.5-1.92c6.63.93,11.83,3.14,11.83,6.56"/></g></g></svg>