<svg xmlns="http://www.w3.org/2000/svg" viewBox="0 0 47.11 47.02"><defs><style>.cls-1{fill:#ba804c;}</style></defs><title>Asset 5</title><g id="Layer_2" data-name="Layer 2"><g id="Layer_1-2" data-name="Layer 1"><path class="cls-1" d="M6.9,40.14a23.6,23.6,0,0,0,29.6,3,5.06,5.06,0,0,0,.79-7.81l-.9-.89,1.19-1.19a3.38,3.38,0,0,0-.93-5.43l-6.73-3.25a1.34,1.34,0,0,0-1.55.28L26.26,27h-.06A11.08,11.08,0,0,1,20,20.83l2.19-2.19a1.34,1.34,0,0,0,.27-1.53l-3.26-6.75a3.38,3.38,0,0,0-5.43-.92L12.5,10.72A10.63,10.63,0,0,0,10.06,22a25.63,25.63,0,0,0,15,15,10.58,10.58,0,0,0,9.21-.88,1.35,1.35,0,0,0,.19.25l.89.89A2.39,2.39,0,0,1,35,40.92,20.87,20.87,0,0,1,8.78,8.74l.61-.59a21,21,0,0,1,28.18-.1,20.76,20.76,0,0,1,5.41,23,1.35,1.35,0,1,0,2.49,1,23.41,23.41,0,0,0-6.1-26A23.54,23.54,0,0,0,6.24,39.45l.66.69M26,34.46h0A23,23,0,0,1,12.57,21a8,8,0,0,1,1.82-8.39l1.27-1.27a.68.68,0,0,1,.49-.21h.12a.69.69,0,0,1,.54.39l2.84,5.89L18,19a2.49,2.49,0,0,0-.53,2.68,13.76,13.76,0,0,0,7.7,7.82l.16.06a2.53,2.53,0,0,0,2.76-.6l1.5-1.56,5.89,2.83a.71.71,0,0,1,.19,1.13l-1.27,1.27A8,8,0,0,1,26,34.46"/></g></g></svg>