<svg xmlns="http://www.w3.org/2000/svg" viewBox="0 0 30.18 29.36"><defs><style>.cls-1{fill:#007bb5;}.cls-2{fill:#fff;}</style></defs><title>Asset 4</title><g id="Layer_2" data-name="Layer 2"><g id="Layer_1-2" data-name="Layer 1"><rect class="cls-1" width="30.18" height="29.36"/><path class="cls-2" d="M10.19,22h2.17V13.36H10.19Zm8.66-8.66A4,4,0,0,0,16,14.8V13.36H13.8V22H16V17a1.84,1.84,0,0,1,2.17-1.44c.92.06,1.41,1.27,1.44,1.44V22h2.16V16A2.7,2.7,0,0,0,18.85,13.36Zm-7.58-2.89a1.08,1.08,0,1,0,1.08,1.08A1.08,1.08,0,0,0,11.27,10.47Z"/></g></g></svg>