<svg xmlns="http://www.w3.org/2000/svg" viewBox="0 0 30.18 29.36"><defs><style>.cls-1{fill:red;}.cls-2{fill:#fff;}</style></defs><title>Asset 5</title><g id="Layer_2" data-name="Layer 2"><g id="Layer_1-2" data-name="Layer 1"><rect class="cls-1" width="30.18" height="29.36"/><path class="cls-2" d="M7.57,10.64a1.31,1.31,0,0,0-.53.11l8.15,7a.76.76,0,0,0,.84,0l8.15-7a1.31,1.31,0,0,0-.53-.11Zm-1.16.71a1.31,1.31,0,0,0-.14.59v8.7a1.3,1.3,0,0,0,1.3,1.3H23.66a1.3,1.3,0,0,0,1.3-1.3v-8.7a1.31,1.31,0,0,0-.14-.59l-8.22,7a1.53,1.53,0,0,1-2,0Z"/></g></g></svg>