<svg xmlns="http://www.w3.org/2000/svg" viewBox="0 0 62.16 62.02"><defs><style>.cls-1{fill:#bb814d;}</style></defs><title>Asset 4</title><g id="Layer_2" data-name="Layer 2"><g id="Layer_1-2" data-name="Layer 1"><path class="cls-1" d="M62.15,32A31.19,31.19,0,0,0,33.38,4.07V2.54A2.42,2.42,0,0,0,30.64,0a2.44,2.44,0,0,0-2.19,2V4.18A31.34,31.34,0,0,0,3.73,20.27,30.72,30.72,0,0,0,0,31.86a1.36,1.36,0,0,0,2.08,1.31,14.85,14.85,0,0,1,8.1-2.3,14.48,14.48,0,0,1,9.41,3.5,1.33,1.33,0,0,0,1.75,0,14.45,14.45,0,0,1,6.89-3.28V46.74h4.92V31.32c0-.11.11-.11.22-.11a13.07,13.07,0,0,1,4.38,1.53,11.37,11.37,0,0,1,2.63,1.86h0a1.48,1.48,0,0,0,1.86,0A14.51,14.51,0,0,1,51.76,31,14.18,14.18,0,0,1,60,33.4,1.49,1.49,0,0,0,62.15,32Z"/><path class="cls-1" d="M28.13,47.84v7.77A1.76,1.76,0,0,1,27.47,57a1.83,1.83,0,0,1-2,0,2.16,2.16,0,0,1-.66-1.53V51.89a2.35,2.35,0,0,0-1.53-2.08,2.81,2.81,0,0,0-2.63.33,2.1,2.1,0,0,0-1,1.75c0,1.53-.11,3,0,4.49a5.28,5.28,0,0,0,1.2,3.28,6,6,0,0,0,3.39,2.19,8.19,8.19,0,0,0,2.84.11,6.19,6.19,0,0,0,2.74-.88,6,6,0,0,0,2-1.75,6.53,6.53,0,0,0,1.09-2.52c0-.22.11-.44.11-.66V47.62H28.13Z"/><path class="cls-1" d="M45.63,51a5.47,5.47,0,1,0,5.47,5.47A5.42,5.42,0,0,0,45.63,51Zm2.84,9a.75.75,0,0,1-.77.77h-4A.75.75,0,0,1,42.9,60h0a.78.78,0,0,1,.33-.66,2,2,0,0,0,1-1.53v-.44h-.44a.77.77,0,1,1,0-1.53H44c0-.22-.11-.55-.11-.88a2.25,2.25,0,0,1,.77-1.86,2.64,2.64,0,0,1,1.86-.77,3.37,3.37,0,0,1,1.09.11.67.67,0,0,1,.44,1v.11a.78.78,0,0,1-1,.55c-.22,0-.33-.11-.55-.11s-.88,0-.88,1a1.62,1.62,0,0,0,.11.77h1a.77.77,0,1,1,0,1.53H46a3,3,0,0,1-.11,1h0c-.11.22-.22.55-.33.77h2.19a.75.75,0,0,1,.77.77Z"/><path class="cls-1" d="M11.39,35A8.64,8.64,0,1,0,20,43.68,8.66,8.66,0,0,0,11.39,35Zm3.72,12.91a2.39,2.39,0,0,1-1,1.09,6.47,6.47,0,0,1-1.53.66c-.22,0-.33.11-.55.11v.88H10.73v-.77a9.64,9.64,0,0,1-1.86-.22c-.33-.11-.66-.11-1-.22a1,1,0,0,1-.66-.88V47.4A.52.52,0,0,1,7.88,47a3.28,3.28,0,0,0,.88.44,4.54,4.54,0,0,0,1.75.33h.11a1.62,1.62,0,0,0,.77-.11c.22,0,.33-.11.55-.22a.11.11,0,0,0,.11-.11c.22-.11.33-.22.33-.44a.66.66,0,0,0,.11-.44,1.56,1.56,0,0,0-.22-.66c-.11-.11-.22-.33-.44-.44l-.11-.11a6.5,6.5,0,0,0-.88-.44c-.11,0-.22-.11-.33-.11l-.66-.33A3.86,3.86,0,0,1,8,43a3.15,3.15,0,0,1-.66-2.08,3.65,3.65,0,0,1,.33-1.64,3.1,3.1,0,0,1,1-1.09,3.84,3.84,0,0,1,1.53-.66c.22,0,.33-.11.55-.11v-.88H12v.77a7.75,7.75,0,0,1,1.64.11c.22,0,.44.11.66.11a.83.83,0,0,1,.66.88v1.09a.48.48,0,0,1-.66.44,1.58,1.58,0,0,0-.77-.22,1.86,1.86,0,0,0-.77-.11H12a1.86,1.86,0,0,0-.77.11.84.84,0,0,0-.55.22h-.11a1.51,1.51,0,0,0-.44.33.82.82,0,0,0-.11.55,1,1,0,0,0,.11.55c.11.11.22.33.44.44h0c.22.11.44.33.66.44s.33.22.55.33.22.11.33.11l1.31.66a3.41,3.41,0,0,1,1,.77l.66,1a4.08,4.08,0,0,1,.22,1.31A1.54,1.54,0,0,1,15.11,47.95Z"/><path class="cls-1" d="M53.62,34.93a5.51,5.51,0,0,1,5.47,5.58A5.44,5.44,0,0,1,53.51,46a5.6,5.6,0,0,1-5.58-5.58A5.83,5.83,0,0,1,53.62,34.93Zm-2.74,6.78h.44c.11,0,.11,0,.11.11.11.33.22.55.33.88A2.4,2.4,0,0,0,53.18,44a5.33,5.33,0,0,0,1.31.11,1.76,1.76,0,0,0,1-.33.11.11,0,0,0,.11-.11V42.59h-.11a2.32,2.32,0,0,1-.77.33,1.35,1.35,0,0,1-1.53-.55l-.33-.66h2.08v-.88H52.85a.11.11,0,0,1-.11-.11v-.66h2.19c.11,0,.11,0,.11-.11v-.77H53c0-.11,0-.11.11-.22.22-.44.44-.77.88-.88a1.54,1.54,0,0,1,1.53.22c.11,0,.11.11.22.11h0V37.33a.11.11,0,0,0-.11-.11c-.11,0-.22-.11-.33-.11a4.1,4.1,0,0,0-1.2-.11,3.1,3.1,0,0,0-1.42.44,2.56,2.56,0,0,0-1.09,1.75.11.11,0,0,1-.11.11H51v.88h.33c.11,0,.11,0,.11.11v.55c0,.11,0,.11-.11.11H51C50.88,41.05,50.88,41.38,50.88,41.71Z"/></g></g></svg>