<svg xmlns="http://www.w3.org/2000/svg" viewBox="0 0 61.13 59.42"><defs><style>.cls-1{fill:#bb814d;}</style></defs><title>Asset 6 1</title><g id="Layer_2" data-name="Layer 2"><g id="Layer_1-2" data-name="Layer 1"><path class="cls-1" d="M9.19,15.12c2.35,0,5.74-.74,10.74-3.68,4.56-2.65,7.51-.44,8.54.59-.15,10.3-1.18,29.87-5.89,40.32H38.32c-4.71-10.45-5.74-30-5.89-40.32,1-1,4.12-3.24,8.54-.59,5,2.94,8.54,3.68,10.74,3.68a6,6,0,0,0,3.53-.88A2,2,0,1,0,53,10.85s-2.8,1.32-10-2.94c-4.27-2.5-7.95-2.06-10.6-.74V6.44a11.36,11.36,0,0,0-.29-2.21L30.67.11c0-.15-.29-.15-.29,0L28.91,4.23a3.86,3.86,0,0,0-.29,2.21v.74C26,5.85,22.28,5.41,17.87,7.91,11,12,8,11,7.86,10.85a2.12,2.12,0,0,0-2.8.59,2,2,0,0,0,.59,2.8A5.65,5.65,0,0,0,9.19,15.12Z"/><path class="cls-1" d="M60.84,38.52H42.74c-.15,0-.29.15-.15.29a10,10,0,0,0,18.54,0A.32.32,0,0,0,60.84,38.52Z"/><path class="cls-1" d="M51.72,16.45a1,1,0,0,0-.88.59L42.74,36.31a.89.89,0,1,0,1.62.74l6.48-15.16V36.75a.88.88,0,1,0,1.77,0V21.89L58.93,37a1,1,0,0,0,.88.59h.29a.81.81,0,0,0,.44-1.18L52.6,17A1,1,0,0,0,51.72,16.45Z"/><path class="cls-1" d="M18.6,38.82c0-.15,0-.29-.15-.29H.21c-.15,0-.29.15-.15.29a10,10,0,0,0,18.54,0Z"/><path class="cls-1" d="M.8,37.49A.93.93,0,0,0,2,37L8.3,21.89V36.75a1,1,0,0,0,.88.88,1,1,0,0,0,.88-.88V21.89L16.4,37a1,1,0,0,0,.88.59h.29A.81.81,0,0,0,18,36.46L9.92,17.18a1,1,0,0,0-1.77,0L.06,36.46A1.28,1.28,0,0,0,.8,37.49Z"/><path class="cls-1" d="M15.37,56v3.38H44.95V56A2,2,0,0,0,43,54.12H17.13A1.82,1.82,0,0,0,15.37,56Z"/></g></g></svg>