<svg xmlns="http://www.w3.org/2000/svg" viewBox="0 0 68.67 55.47"><defs><style>.cls-1{fill:#bb814d;}</style></defs><title>Asset 5</title><g id="Layer_2" data-name="Layer 2"><g id="Layer_1-2" data-name="Layer 1"><path class="cls-1" d="M32.35,42.8,29,42.73A2.55,2.55,0,0,1,26.63,41a2.6,2.6,0,0,1,.69-2.82l7.86-7.1V2.29A2.3,2.3,0,0,0,32.89,0H2.29A2.3,2.3,0,0,0,0,2.29V53.18a2.3,2.3,0,0,0,2.29,2.29H12.82V45.09a.93.93,0,0,1,.92-.92h7.94a.93.93,0,0,1,.92.92v10.3H32.81a4,4,0,0,1-.31-1.6v-11ZM6.18,12.13a.68.68,0,0,1,.69-.69H14a.68.68,0,0,1,.69.69v7.1a.68.68,0,0,1-.69.69H6.87a.68.68,0,0,1-.69-.69ZM14.8,34.56a.68.68,0,0,1-.69.69H7a.68.68,0,0,1-.69-.69v-7.1A.68.68,0,0,1,7,26.78h7.1a.68.68,0,0,1,.69.69Zm5.57-22.51a.68.68,0,0,1,.69-.69h7.17a.68.68,0,0,1,.69.69v7.1a.68.68,0,0,1-.69.69h-7.1a.68.68,0,0,1-.69-.69v-7.1Zm.84,23.2a.68.68,0,0,1-.69-.69v-7.1a.68.68,0,0,1,.69-.69h7.1a.68.68,0,0,1,.69.69v7.1a.68.68,0,0,1-.69.69Z"/><path class="cls-1" d="M62.95,35V24.72H57.3v5.11L49.82,23a1.31,1.31,0,0,0-1.68,0L29.07,40.13l5.88.15V53.79a1.53,1.53,0,0,0,1.53,1.53h8.39V47.61a1.69,1.69,0,0,1,1.68-1.68h5a1.69,1.69,0,0,1,1.68,1.68v7.71h8.32a1.53,1.53,0,0,0,1.53-1.53V40.59l5.57-.38ZM52.57,37a1.21,1.21,0,0,1-1.22,1.22H46.77A1.21,1.21,0,0,1,45.55,37V35.78a1.21,1.21,0,0,1,1.22-1.22h4.58a1.21,1.21,0,0,1,1.22,1.22Z"/></g></g></svg>