<svg xmlns="http://www.w3.org/2000/svg" viewBox="0 0 60.44 59.16"><defs><style>.cls-1{fill:#bb814d;}</style></defs><title>Asset 7</title><g id="Layer_2" data-name="Layer 2"><g id="Layer_1-2" data-name="Layer 1"><path class="cls-1" d="M33.8,53.82a15.35,15.35,0,0,1,4.8-11.18A11.94,11.94,0,0,1,54.94,26.78v-15a3.17,3.17,0,0,0-1.73-3l-2-.79h0L46.37,6.11,40.87,4l-5-1.9-5-1.94-.13,0-.13,0a1.88,1.88,0,0,0-.87,0l-.13,0-.13,0L7.25,8.8a3.17,3.17,0,0,0-1.73,3V49.19H3.08a3.08,3.08,0,0,0,0,6.15H33.8Zm-6-9.9-17.41.45V40l17.41-1.36Zm0-10.47L10.38,35.72V31.41l17.41-3.2Zm0-10.47L10.38,27.07V22.74l17.41-5Zm0-10.48L10.38,18.42V14.15L27.79,7.39ZM60.44,53.82v3.81a1.56,1.56,0,0,1-1.55,1.52H39.7a1.56,1.56,0,0,1-1.54-1.52V53.85A11.06,11.06,0,0,1,45,43.6a7.6,7.6,0,1,1,8.59,0A11.06,11.06,0,0,1,60.44,53.82Z"/></g></g></svg>