<svg xmlns="http://www.w3.org/2000/svg" viewBox="0 0 51.04 56.06"><defs><style>.cls-1{fill:#bb814d;}</style></defs><title>Asset 3</title><g id="Layer_2" data-name="Layer 2"><g id="Layer_1-2" data-name="Layer 1"><polygon class="cls-1" points="47.44 52.08 47.44 48.11 3.6 48.11 3.6 52.08 0.45 52.08 0.45 56.05 50.58 56.05 50.58 52.08 47.44 52.08"/><polygon class="cls-1" points="16.12 25.15 16.12 22.36 14.69 22.36 6.78 22.36 5.35 22.36 5.35 25.15 6.78 25.15 6.78 43.86 5.35 43.86 5.35 46.65 6.78 46.65 14.69 46.65 16.12 46.65 16.12 43.86 14.69 43.86 14.69 25.15 16.12 25.15"/><polygon class="cls-1" points="45.69 25.15 45.69 22.36 44.26 22.36 36.34 22.36 34.91 22.36 34.91 25.15 36.34 25.15 36.34 43.86 34.91 43.86 34.91 46.65 36.34 46.65 44.26 46.65 45.69 46.65 45.69 43.86 44.26 43.86 44.26 25.15 45.69 25.15"/><polygon class="cls-1" points="26.1 0 0 16.08 0 20.81 51.04 20.81 51.04 16.08 26.1 0"/><path class="cls-1" d="M25.54,32.92a2.17,2.17,0,0,1-.1-4.31,2,2,0,0,1,1.91,1.88l.07.64,2.82,0-.06-.76a5.27,5.27,0,0,0-3-4.54l-.36-.16,0-2.43a.8.8,0,0,0-.81-.79H24.77a.8.8,0,0,0-.79.8l0,2.43-.36.16a5.3,5.3,0,0,0-2.88,5,5.71,5.71,0,0,0,1.38,3.71,4.49,4.49,0,0,0,3.36,1.59,2.15,2.15,0,0,1,.1,4.28,2,2,0,0,1-1.91-1.88l-.07-.64-2.81,0,.05.75a5.29,5.29,0,0,0,3,4.57l.36.16,0,2.4a.8.8,0,0,0,.81.79h1.22a.8.8,0,0,0,.79-.8l0-2.4.36-.17a5.35,5.35,0,0,0,2.91-5C30.25,35.29,28.13,32.92,25.54,32.92Z"/></g></g></svg>