<svg xmlns="http://www.w3.org/2000/svg" viewBox="0 0 51.78 52.28"><defs><style>.cls-1{fill:#bb814d;}</style></defs><title>Asset 6</title><g id="Layer_2" data-name="Layer 2"><g id="Layer_1-2" data-name="Layer 1"><path class="cls-1" d="M36.22,45.23V35.46a10.91,10.91,0,0,0-1.67-2.62c-.45-.41-1.77.09-1.88-.72-.16-1.24,1.16-2,1.59-3.18a12.8,12.8,0,0,0,.47-2.47c2.46-.7,3.57-6.48,2-6.62,0-.27.1-.55.14-.83H14.92c0,.28.1.56.14.83-1.59.15-.44,5.93,2,6.64.32,1.44,0,1.27.43,2.45s1.75,1.93,1.59,3.18c-.11.82-1.42.31-1.88.72a10.93,10.93,0,0,0-1.67,2.62v9.77Z"/><path class="cls-1" d="M10.16,45.61V38.11C6.9,39.48,1.28,41.52.35,44.24c-.58,1.69-.24,3-.32,4.91H0c0,1.22,2.85,2.32,7.44,3.12V49.72A4.52,4.52,0,0,1,10.16,45.61Z"/><path class="cls-1" d="M51.43,44.24c-.93-2.72-6.55-4.76-9.82-6.12v7.49a4.52,4.52,0,0,1,2.69,4.12v2.43c4.54-.79,7.44-1.84,7.44-3h0C51.67,47.28,52,45.93,51.43,44.24Z"/><path class="cls-1" d="M13.18,16.79H38.6a1.79,1.79,0,1,0,0-3.59h-.49a12.22,12.22,0,0,0-6.7-10.9L30.39,8a.94.94,0,0,1-.92.77h-.16a.94.94,0,0,1-.76-1.09l1.16-6.56A2.45,2.45,0,0,0,27.62,0H24.15a2.45,2.45,0,0,0-2.08,1.16l1.16,6.56a.94.94,0,0,1-.76,1.09H22.3A.94.94,0,0,1,21.38,8l-1-5.74a12.22,12.22,0,0,0-6.7,10.9h-.49a1.79,1.79,0,0,0,0,3.59Z"/></g></g></svg>