<svg xmlns="http://www.w3.org/2000/svg" viewBox="0 0 313.08 21.56"><defs><style>.cls-1{fill:#010101;}</style></defs><title>Asset 9</title><g id="Layer_2" data-name="Layer 2"><g id="Layer_1-2" data-name="Layer 1"><path class="cls-1" d="M42.51,6.15a4.85,4.85,0,0,1-.12,1.1q-.12.53-.26.53T42,7.71l0-.12a3.56,3.56,0,0,0,.22-1.38,4.22,4.22,0,0,0-1.55-3.3,5.56,5.56,0,0,0-3.79-1.35q-3.62,0-7.41,3.55a28.27,28.27,0,0,0-2.58,2.71q-1,1.25-4.07,5.28Q18.39,19,15.52,20.5a5.34,5.34,0,0,1-1.65.66q-.09,0-.09-.1l.31-.23A7.47,7.47,0,0,0,16.37,18q.79-1.66,2.84-7.84,1.74-5.28,4-7.56a.24.24,0,0,0,.09-.15q-.19-.06-.86.63a33.49,33.49,0,0,0-5.13,7.79,37.73,37.73,0,0,1-3.19,5.24,15.26,15.26,0,0,1-3.26,3.13A10.66,10.66,0,0,1,4.6,21.42a5.86,5.86,0,0,1-3.32-.86A2.57,2.57,0,0,1,0,18.35a1.92,1.92,0,0,1,.44-1.28,1.38,1.38,0,0,1,1.1-.52.84.84,0,0,1,1,.94,1.19,1.19,0,0,1-.31.83,1,1,0,0,1-.75.34q-.72,0-.72-.79c0-.2,0-.29-.12-.29s-.24.27-.24.81a2.28,2.28,0,0,0,1.19,2,5.59,5.59,0,0,0,3.07.77q3.83,0,7.51-4A26.29,26.29,0,0,0,14.63,14q1-1.52,4.09-6.6a23.8,23.8,0,0,1,2.91-3.91q1.62-1.76,2.31-1.76.1,0,.1.09A.33.33,0,0,1,24,2q-1.36,1.49-2.46,5.64a46.92,46.92,0,0,1-3.09,8.85,10.4,10.4,0,0,1-3.69,4.09s-.06,0-.06.06l.06,0a4.75,4.75,0,0,0,1.64-.94A15.94,15.94,0,0,0,19.3,17q1.33-1.55,4.83-6.36a58.84,58.84,0,0,1,3.93-5,18.63,18.63,0,0,1,3.23-2.78,9.93,9.93,0,0,1,5.58-1.86,5.81,5.81,0,0,1,4,1.43A4.69,4.69,0,0,1,42.51,6.15ZM19.3,5.32q0,.32-.84,1.26A3.45,3.45,0,0,1,16,8a1.8,1.8,0,0,1-1.36-.59A2,2,0,0,1,14.11,6a4.58,4.58,0,0,1,.6-2,5.61,5.61,0,0,0,.75-2.07,1.38,1.38,0,0,0-.7-1.2A3.35,3.35,0,0,0,12.91.23,9,9,0,0,0,6.77,2.87,7.63,7.63,0,0,0,3.9,8.48,3.46,3.46,0,0,0,4.84,11a3.23,3.23,0,0,0,2.43,1,5.48,5.48,0,0,0,2.68-.75,6.49,6.49,0,0,0,2.19-1.94s.07-.07.09-.07.12,0,.12.13-.31.57-.94,1.13A6.16,6.16,0,0,1,7.21,12.2a3.44,3.44,0,0,1-2.58-1,3.66,3.66,0,0,1-1-2.67A7.82,7.82,0,0,1,6.57,2.67,9.37,9.37,0,0,1,13,0a3.28,3.28,0,0,1,2.25.72,2.5,2.5,0,0,1,.81,2,7.49,7.49,0,0,1-.94,2.86,2.69,2.69,0,0,0-.32,1.07q0,1.11,1.2,1.11A2.72,2.72,0,0,0,17.6,7,5.35,5.35,0,0,0,19,5.35c0-.1.1-.15.15-.15A.1.1,0,0,1,19.3,5.32ZM35.46,2.18s-.13.14-.4.28a9.2,9.2,0,0,0-3,2.62,30.75,30.75,0,0,0-3,5.26,35.46,35.46,0,0,1-4.34,7.41A10.7,10.7,0,0,1,20,21a14.42,14.42,0,0,0,2,.2,6.13,6.13,0,0,0,3.61-1,21.25,21.25,0,0,0,3.83-4.31q.16-.21.25-.21a.08.08,0,0,1,.06.09,12.7,12.7,0,0,1-1.38,1.89,11.9,11.9,0,0,1-3,2.92,6.35,6.35,0,0,1-3.26.78,13.63,13.63,0,0,1-2.59-.27,6.27,6.27,0,0,1-2,.33q-.78,0-.78-.3t1.08-.37a11.24,11.24,0,0,1,1.58.15h.19a6.32,6.32,0,0,0,2.63-1.77,21.65,21.65,0,0,0,2.59-4.08,70.38,70.38,0,0,1,4.85-8.23,17.17,17.17,0,0,1,4.15-4,4.38,4.38,0,0,1,1.57-.81A.08.08,0,0,1,35.46,2.18Z"/><path class="cls-1" d="M38.85,16.19A12.88,12.88,0,0,1,36.73,19Q35,21.12,33.94,21.12a1.39,1.39,0,0,1-1.09-.52,1.86,1.86,0,0,1-.45-1.25,3.66,3.66,0,0,1,.57-1.6l-.29.4a22.47,22.47,0,0,1-2,2.31,2,2,0,0,1-1.3.66,1.38,1.38,0,0,1-1.08-.51,1.82,1.82,0,0,1-.44-1.24,3.91,3.91,0,0,1,.66-1.95l2.67-4.48a4.12,4.12,0,0,0,.78.1,8.36,8.36,0,0,0,1-.1l-3.49,5.74A3.12,3.12,0,0,0,29,20.24q0,.66.56.66,1.48,0,4.75-5.52l1.44-2.43a3.57,3.57,0,0,0,.76.1,7.43,7.43,0,0,0,1-.1l-2.34,3.82a10.21,10.21,0,0,0-1.67,3.5q0,.63.6.63,1.17,0,3.81-3.7l.45-.63.26-.32q.07-.15.15-.15A.08.08,0,0,1,38.85,16.19Z"/><path class="cls-1" d="M47.2,16.19a5.25,5.25,0,0,1-.88,1.07,3,3,0,0,1-2.1,1.23q-1.12,0-1.12-1.29a4,4,0,0,1,.18-1,10,10,0,0,0-1.5,1.6q-.58.79-2,3.22l-.91-.06L38,21l2.4-3.9q1.8-2.93,1.8-3.63,0-.41-.34-.41-.82,0-3,3.16-.13.21-.23.21a.08.08,0,0,1-.06-.09.22.22,0,0,1,.06-.12l.26-.37q2.26-3,3.07-3,1.17,0,1.17,1.51a6.09,6.09,0,0,1-1.2,3,11.7,11.7,0,0,1,1.45-1.44,7.36,7.36,0,0,1,1.38-2.18,2.25,2.25,0,0,1,1.49-.88q.45,0,.45.4,0,.7-2,2l-1,.6-.18.15a4,4,0,0,0-.21,1.11q0,1.23.92,1.23,1.14,0,2.5-1.9.29-.32.37-.32A.08.08,0,0,1,47.2,16.19Z"/><path class="cls-1" d="M57.49,16.19A14,14,0,0,1,55.35,19q-1.73,2.08-2.73,2.08a1.37,1.37,0,0,1-1.1-.51,1.9,1.9,0,0,1-.43-1.27,3.82,3.82,0,0,1,.47-1.71,20,20,0,0,1-2.24,2.77,2.27,2.27,0,0,1-1.51.72,1.6,1.6,0,0,1-1.3-.67A2.62,2.62,0,0,1,46,18.78q0-2.81,4-5a6.29,6.29,0,0,1,2.81-1,.79.79,0,0,1,.91.88,2.54,2.54,0,0,1-.12.66l.75-1.42a3.47,3.47,0,0,0,.78.1,6.66,6.66,0,0,0,1-.1l-2.59,4.29a8.27,8.27,0,0,0-1.35,3q0,.69.57.69t1.88-1.34a25.19,25.19,0,0,0,2.63-3.31q.09-.15.16-.15A.08.08,0,0,1,57.49,16.19Zm-4-2.42q0-.72-.66-.72-1.35,0-3.54,2.64T47.07,20q0,1,.85,1,1,0,3.5-3.35Q53.45,14.79,53.45,13.77Z"/><path class="cls-1" d="M65.2,5.82Q59,16.05,58,17.86a6.77,6.77,0,0,0-1,2.39q0,.66.56.66,1.23,0,4.52-4.65.07-.15.18-.15a.08.08,0,0,1,.06.09.4.4,0,0,1-.15.23l-.63.87q-2.77,3.83-4.09,3.83a1.29,1.29,0,0,1-1-.48,1.8,1.8,0,0,1-.4-1.21,3.48,3.48,0,0,1,.37-1.56q.37-.75,2.54-4.36,2.65-4.41,4.47-7.65a3.06,3.06,0,0,0,.78.12A2.9,2.9,0,0,0,65.2,5.82Z"/><path class="cls-1" d="M67.33,16.19a1.58,1.58,0,0,1-.15.23l-.63.87q-2.76,3.83-4.21,3.83a1.52,1.52,0,0,1-1.15-.49,1.71,1.71,0,0,1-.46-1.22,6,6,0,0,1,1-2.58L64,12.95a3.47,3.47,0,0,0,.72.1,8.44,8.44,0,0,0,1.11-.1l-3.33,5.46a4,4,0,0,0-.72,1.83q0,.66.69.66,1.31,0,4.59-4.65.07-.15.15-.15A.08.08,0,0,1,67.33,16.19Zm-.21-6.06a1.36,1.36,0,0,1-.43,1,1.3,1.3,0,0,1-.94.45.58.58,0,0,1-.66-.66,1.31,1.31,0,0,1,.45-.93,1.35,1.35,0,0,1,1-.45A.56.56,0,0,1,67.12,10.14Z"/><path class="cls-1" d="M106.38,5.55a7.7,7.7,0,0,1-.2,1.67q-.2.91-.39.91a.13.13,0,0,1-.15-.15.46.46,0,0,1,0-.13,6.09,6.09,0,0,0,.4-2.21,4.05,4.05,0,0,0-1.1-3,3.88,3.88,0,0,0-2.9-1.12,9.43,9.43,0,0,0-5,1.6,4.39,4.39,0,0,1,2.05,3.56q0,3.27-4.44,3.88,3.65,1.27,3.65,4.67a5.72,5.72,0,0,1-2.15,4.41,7.35,7.35,0,0,1-5,1.89A3.21,3.21,0,0,1,89,20.85a2.43,2.43,0,0,1-.81-1.93,5.47,5.47,0,0,1,1.72-3.71,4.86,4.86,0,0,1,3.46-1.84,2.16,2.16,0,0,1,1.58.61,2.1,2.1,0,0,1,.62,1.56A3.88,3.88,0,0,1,95.2,17q-.35.85-.57.85t-.16-.12a.45.45,0,0,1,.06-.18,3.67,3.67,0,0,0,.76-2,1.77,1.77,0,0,0-.54-1.35,2,2,0,0,0-1.42-.51A4.45,4.45,0,0,0,90.1,15.4,5.31,5.31,0,0,0,88.52,19a2.16,2.16,0,0,0,.66,1.61,2.25,2.25,0,0,0,1.64.64A5.38,5.38,0,0,0,94.92,19a7.19,7.19,0,0,0,1.86-4.78,3.76,3.76,0,0,0-2.34-3.57l-.85.1a5.66,5.66,0,0,1-.7,0q-1.11,0-1.11-.37t.92-.26a7.77,7.77,0,0,1,1.74.26,4.64,4.64,0,0,0,2.41-1.64,4.35,4.35,0,0,0,.89-2.7,3.76,3.76,0,0,0-1.13-2.65q-3.21,2.46-6,8.35a23.54,23.54,0,0,1-3.19,5.24,13.21,13.21,0,0,1-4,2.86,12.72,12.72,0,0,1-5.46,1.49,5.61,5.61,0,0,1-3.27-.9,2.66,2.66,0,0,1-1.3-2.25A2,2,0,0,1,73.79,17a1.34,1.34,0,0,1,1.06-.54q.89,0,.89,1a1.26,1.26,0,0,1-.3.85.94.94,0,0,1-.74.35q-.76,0-.73-.79,0-.32-.06-.32-.23,0-.23.78a2.38,2.38,0,0,0,1.19,2,5.27,5.27,0,0,0,3,.81,8.43,8.43,0,0,0,5.82-2.37,15.11,15.11,0,0,0,2-2.15q.83-1.12,3.82-5.69A38.33,38.33,0,0,1,93,6.47a21.6,21.6,0,0,1,3.41-3.21q-2.31-1.95-6.71-1.95A14.88,14.88,0,0,0,78.93,5.79q-3.75,3.66-3.75,6.9a3.36,3.36,0,0,0,1.05,2.61,4.06,4.06,0,0,0,2.86,1q2.94,0,6.09-2.83t3.14-5.49a1.9,1.9,0,0,0-2.18-2.12q-2.18,0-4.68,2.42T79,12.8a1.29,1.29,0,0,0,.35.91,1.09,1.09,0,0,0,.82.38q.25,0,.25.12t-.28.13a1.45,1.45,0,0,1-1.19-.64,2.5,2.5,0,0,1-.48-1.56q0-2.27,2.5-4.43a7.84,7.84,0,0,1,5.14-2.16q2.52,0,2.52,2.33,0,2.84-3.21,5.74t-6.33,2.9A4.21,4.21,0,0,1,74.58,12q0-4.15,4.68-7.57A17.14,17.14,0,0,1,89.6,1,13.07,13.07,0,0,1,96.84,3,9.82,9.82,0,0,1,102,1.29a4.31,4.31,0,0,1,3.16,1.17A4.14,4.14,0,0,1,106.38,5.55Z"/><path class="cls-1" d="M102.91,19.06a1.79,1.79,0,0,1-.6,1.26,1.74,1.74,0,0,1-1.23.6q-.64,0-.64-.67a1.69,1.69,0,0,1,.63-1.2,1.86,1.86,0,0,1,1.26-.6Q102.91,18.47,102.91,19.06Z"/><path class="cls-1" d="M146.25,5.55a7.69,7.69,0,0,1-.2,1.67q-.2.91-.39.91a.13.13,0,0,1-.15-.15.46.46,0,0,1,0-.13,6.18,6.18,0,0,0,.39-2.21,4,4,0,0,0-1.1-3,3.88,3.88,0,0,0-2.9-1.12,9.51,9.51,0,0,0-5,1.6,5.06,5.06,0,0,1,2.2,4,4.31,4.31,0,0,1-1.51,3.27,5,5,0,0,1-3.53,1.39,5.16,5.16,0,0,1-1.7-.32q-.91-.32-.91-.6a.11.11,0,0,1,.12-.09.58.58,0,0,1,.23.09,3.65,3.65,0,0,0,1.83.52A3.61,3.61,0,0,0,136.52,10a5.19,5.19,0,0,0,1.19-3.43,4.42,4.42,0,0,0-1.23-3.06q-3.18,2.37-6,8.35A22.86,22.86,0,0,1,127.28,17a13.33,13.33,0,0,1-4,2.89,12.72,12.72,0,0,1-5.46,1.49,5.61,5.61,0,0,1-3.27-.9,2.66,2.66,0,0,1-1.3-2.25,2,2,0,0,1,.45-1.29,1.34,1.34,0,0,1,1.06-.54q.89,0,.89,1a1.26,1.26,0,0,1-.3.85.94.94,0,0,1-.74.35q-.76,0-.73-.79,0-.32-.06-.32-.23,0-.23.78a2.38,2.38,0,0,0,1.19,2,5.27,5.27,0,0,0,3,.81,8.43,8.43,0,0,0,5.82-2.37,15,15,0,0,0,1.95-2.12q.88-1.17,3.84-5.68a39.5,39.5,0,0,1,3.49-4.47,20.86,20.86,0,0,1,3.41-3.21Q134,1.32,129.55,1.32A14.88,14.88,0,0,0,118.8,5.79Q115,9.45,115,12.69a3.36,3.36,0,0,0,1.05,2.61,4.06,4.06,0,0,0,2.86,1q2.94,0,6.09-2.83t3.14-5.49A1.9,1.9,0,0,0,126,5.82q-2.18,0-4.68,2.44t-2.5,4.57a1.29,1.29,0,0,0,.35.91,1.09,1.09,0,0,0,.82.38q.25,0,.25.13t-.28.12a1.45,1.45,0,0,1-1.19-.64,2.49,2.49,0,0,1-.49-1.56q0-2.28,2.5-4.45a7.83,7.83,0,0,1,5.14-2.17q2.52,0,2.52,2.33,0,2.84-3.21,5.74t-6.33,2.9a4.21,4.21,0,0,1-4.48-4.5q0-4.15,4.68-7.57A17.14,17.14,0,0,1,129.48,1,12.93,12.93,0,0,1,136.71,3a9.82,9.82,0,0,1,5.19-1.67,4.31,4.31,0,0,1,3.16,1.17A4.13,4.13,0,0,1,146.25,5.55Z"/><path class="cls-1" d="M140.62,16.19a1.58,1.58,0,0,1-.15.23l-.63.87q-2.76,3.83-4.21,3.83a1.52,1.52,0,0,1-1.15-.49,1.71,1.71,0,0,1-.46-1.22,6,6,0,0,1,1-2.58l2.29-3.88a3.47,3.47,0,0,0,.72.1,8.44,8.44,0,0,0,1.11-.1l-3.33,5.46a4,4,0,0,0-.72,1.83q0,.66.69.66,1.31,0,4.59-4.65.07-.15.15-.15A.08.08,0,0,1,140.62,16.19Zm-.21-6.06a1.36,1.36,0,0,1-.43,1,1.3,1.3,0,0,1-.94.45.58.58,0,0,1-.66-.66,1.31,1.31,0,0,1,.45-.93,1.35,1.35,0,0,1,1-.45A.56.56,0,0,1,140.41,10.14Z"/><path class="cls-1" d="M148.33,5.82q-6.15,10.24-7.17,12a6.77,6.77,0,0,0-1,2.39q0,.66.56.66,1.23,0,4.52-4.65.07-.15.18-.15a.08.08,0,0,1,.06.09.4.4,0,0,1-.15.23l-.63.87q-2.77,3.83-4.09,3.83a1.29,1.29,0,0,1-1-.48,1.8,1.8,0,0,1-.4-1.21,3.48,3.48,0,0,1,.37-1.56q.37-.75,2.54-4.36,2.65-4.41,4.47-7.65a3.06,3.06,0,0,0,.78.12A2.9,2.9,0,0,0,148.33,5.82Z"/><path class="cls-1" d="M153.13,5.82Q147,16.05,146,17.86a6.77,6.77,0,0,0-1,2.39q0,.66.56.66,1.23,0,4.52-4.65.07-.15.18-.15a.08.08,0,0,1,.06.09.4.4,0,0,1-.15.23l-.63.87q-2.77,3.83-4.09,3.83a1.29,1.29,0,0,1-1-.48,1.8,1.8,0,0,1-.4-1.21,3.48,3.48,0,0,1,.37-1.56q.37-.75,2.54-4.36,2.65-4.41,4.47-7.65a3.06,3.06,0,0,0,.78.12A2.9,2.9,0,0,0,153.13,5.82Z"/><path class="cls-1" d="M160.55,16.19A14,14,0,0,1,158.41,19q-1.73,2.08-2.73,2.08a1.37,1.37,0,0,1-1.1-.51,1.9,1.9,0,0,1-.43-1.27,3.82,3.82,0,0,1,.47-1.71,20,20,0,0,1-2.24,2.77,2.27,2.27,0,0,1-1.51.72,1.6,1.6,0,0,1-1.3-.67,2.62,2.62,0,0,1-.53-1.68q0-2.81,4-5a6.29,6.29,0,0,1,2.81-1,.79.79,0,0,1,.91.88,2.54,2.54,0,0,1-.12.66l.75-1.42a3.47,3.47,0,0,0,.78.1,6.66,6.66,0,0,0,1-.1l-2.59,4.29a8.27,8.27,0,0,0-1.35,3q0,.69.57.69t1.88-1.34a25.15,25.15,0,0,0,2.63-3.31c.06-.1.11-.15.16-.15A.08.08,0,0,1,160.55,16.19Zm-4-2.42q0-.72-.66-.72-1.35,0-3.54,2.64T150.13,20q0,1,.85,1,1,0,3.5-3.35Q156.52,14.79,156.52,13.77Z"/><path class="cls-1" d="M165.59,16.19a1.68,1.68,0,0,1-.15.23l-.63.87q-2.76,3.83-4.21,3.83a1.52,1.52,0,0,1-1.15-.49,1.71,1.71,0,0,1-.46-1.22,6,6,0,0,1,1-2.58l2.29-3.88a3.47,3.47,0,0,0,.72.1,8.44,8.44,0,0,0,1.11-.1l-3.33,5.46a4,4,0,0,0-.72,1.83q0,.66.69.66,1.31,0,4.59-4.65c0-.1.1-.15.15-.15A.08.08,0,0,1,165.59,16.19Zm-.21-6.06a1.37,1.37,0,0,1-.43,1,1.3,1.3,0,0,1-.95.45.58.58,0,0,1-.66-.66,1.31,1.31,0,0,1,.45-.93,1.35,1.35,0,0,1,1-.45A.56.56,0,0,1,165.38,10.14Z"/><path class="cls-1" d="M210,3.24c0,.18-.1.26-.31.26a9.23,9.23,0,0,1-1-.18A13.4,13.4,0,0,0,206.15,3,9,9,0,0,0,202,5.79a33.06,33.06,0,0,0-4.12,6.69q-3.54,7.1-9.08,8.39a13.65,13.65,0,0,0,2,.18,6.35,6.35,0,0,0,4.53-1.73,18,18,0,0,0,2.95-3.55c.09-.14.16-.21.21-.21s.09,0,.1.06a12.44,12.44,0,0,1-1.69,2.27A10.93,10.93,0,0,1,194,20.54a6.34,6.34,0,0,1-3.15.73,13.66,13.66,0,0,1-2.61-.31,6.92,6.92,0,0,1-2.16.31q-.85,0-.85-.31t1.14-.35a13.73,13.73,0,0,1,1.86.15A6.71,6.71,0,0,0,191.7,19a54,54,0,0,0,4.49-6.74h-5.64A66.32,66.32,0,0,1,185,17.61q-4.58,3.72-8.64,3.72a6.9,6.9,0,0,1-3.93-1.08,3.13,3.13,0,0,1-1.62-2.64,2,2,0,0,1,.49-1.38,1.52,1.52,0,0,1,1.19-.57.83.83,0,0,1,1,.92,1.16,1.16,0,0,1-.33.83,1,1,0,0,1-.76.34c-.46,0-.68-.22-.68-.66l0-.29a.37.37,0,0,0,0-.16c0-.1,0-.15-.13-.15s-.19.12-.29.37a2,2,0,0,0-.14.75A2.86,2.86,0,0,0,172.66,20a6.6,6.6,0,0,0,3.7,1q3.15,0,6.92-3.09a18.44,18.44,0,0,0,1.92-1.82q2.09-2.2,3.34-3.43l.44-.45h-2.84l.18-.26,2.89,0a32.67,32.67,0,0,1,8.33-7,17.78,17.78,0,0,1,8.53-2.23A10.11,10.11,0,0,1,208,2.58Q210,2.58,210,3.24ZM194.36,5.9q0,.16-.54.78A4,4,0,0,1,191,8.39a1.78,1.78,0,0,1-1.39-.59,2.25,2.25,0,0,1-.54-1.56,6.8,6.8,0,0,1,1-2.65,3.18,3.18,0,0,0,.46-1.41,1.49,1.49,0,0,0-.81-1.25,3.62,3.62,0,0,0-2-.52A9.12,9.12,0,0,0,181.47,3a7.48,7.48,0,0,0-2.87,5.58A3.3,3.3,0,0,0,182.05,12a5.7,5.7,0,0,0,3.34-1.21,6.65,6.65,0,0,0,2.37-2.91q0-.15.12-.15c.09,0,.13,0,.13.15A2.62,2.62,0,0,1,187.49,9a7.63,7.63,0,0,1-1.06,1.31A6.18,6.18,0,0,1,182,12.26a3.6,3.6,0,0,1-2.68-1,3.71,3.71,0,0,1-1-2.72,7.62,7.62,0,0,1,3-5.73A9.58,9.58,0,0,1,187.75.15a3.54,3.54,0,0,1,2.41.76A2.64,2.64,0,0,1,191,3a5.33,5.33,0,0,1-.7,2.36A4.9,4.9,0,0,0,189.7,7q0,1.08,1.29,1.08,1.47,0,3-2.18c.09-.12.16-.18.22-.18A.1.1,0,0,1,194.36,5.9Zm11-2.83a14.74,14.74,0,0,0-7.09,2.2A37,37,0,0,0,190.78,12h5.55a26.84,26.84,0,0,1,4.53-5.86A11.09,11.09,0,0,1,205.4,3.06Z"/><path class="cls-1" d="M209.9,16.19A14,14,0,0,1,207.78,19Q206,21.12,205,21.12a1.41,1.41,0,0,1-1.11-.51,1.86,1.86,0,0,1-.45-1.26,2.77,2.77,0,0,1,.27-1.22,22.25,22.25,0,0,1,1.41-2.23,6.39,6.39,0,0,0,1.19-2.24q0-.6-.63-.6-2.14,0-6.59,7.94l-.87-.06a7.56,7.56,0,0,0-1,.06l2.29-3.62q1.95-3.11,1.95-3.88c0-.29-.12-.44-.37-.44q-.75,0-3,3.16-.13.19-.21.21s-.08,0-.09-.09a.22.22,0,0,1,.06-.12l.28-.37q2.24-3,3-3a1,1,0,0,1,.85.45,1.72,1.72,0,0,1,.35,1.08,5.38,5.38,0,0,1-1.1,2.61A25.53,25.53,0,0,1,204,13.71a2.64,2.64,0,0,1,1.72-.88,1.36,1.36,0,0,1,1.08.53,2,2,0,0,1,.44,1.3,6.5,6.5,0,0,1-1.35,3,7.54,7.54,0,0,0-1.38,2.64.53.53,0,0,0,.6.6q1.31,0,4.5-4.65.07-.15.15-.15A.08.08,0,0,1,209.9,16.19Z"/><path class="cls-1" d="M223.2,6q-5.49,8.73-6.93,11.16a9.8,9.8,0,0,0-1.45,3.12q0,.66.6.66,1.34,0,4.53-4.65c.06-.1.11-.15.16-.15a.08.08,0,0,1,.09.09,1.58,1.58,0,0,1-.15.23l-.63.87q-2.77,3.83-4.09,3.83a1.37,1.37,0,0,1-1.1-.51,2,2,0,0,1-.42-1.3,4.16,4.16,0,0,1,.53-1.83q-2.56,3.63-3.81,3.63a1.61,1.61,0,0,1-1.3-.67,2.62,2.62,0,0,1-.53-1.68q0-2.42,3-4.38a7.72,7.72,0,0,1,3.75-1.57.79.79,0,0,1,.91.88,2.15,2.15,0,0,1-.25.92l5.23-8.76a3.27,3.27,0,0,0,1,.15Zm-7.06,7.87q0-.78-.72-.78-1.32,0-3.48,2.63t-2.16,4.24q0,1,.81,1,1.17,0,4-4.07A7.24,7.24,0,0,0,216.14,13.83Z"/><path class="cls-1" d="M264.65,3.24c0,.18-.1.26-.31.26a9.23,9.23,0,0,1-1-.18A13.4,13.4,0,0,0,260.76,3a9,9,0,0,0-4.17,2.78,33.06,33.06,0,0,0-4.12,6.69q-3.54,7.1-9.08,8.39a13.65,13.65,0,0,0,2,.18,6.35,6.35,0,0,0,4.53-1.73,18,18,0,0,0,2.95-3.55c.09-.14.16-.21.21-.21s.09,0,.1.06a12.44,12.44,0,0,1-1.69,2.27,10.93,10.93,0,0,1-2.86,2.65,6.34,6.34,0,0,1-3.15.73,13.66,13.66,0,0,1-2.61-.31,6.92,6.92,0,0,1-2.16.31q-.85,0-.85-.31t1.14-.35a13.73,13.73,0,0,1,1.86.15A6.71,6.71,0,0,0,246.31,19a54,54,0,0,0,4.49-6.74h-5.64a66.32,66.32,0,0,1-5.55,5.38Q235,21.33,231,21.33A6.9,6.9,0,0,1,227,20.24a3.13,3.13,0,0,1-1.62-2.64,2,2,0,0,1,.49-1.38,1.52,1.52,0,0,1,1.19-.57.83.83,0,0,1,1,.92,1.16,1.16,0,0,1-.33.83,1,1,0,0,1-.76.34c-.46,0-.68-.22-.68-.66l0-.29a.37.37,0,0,0,0-.16c0-.1,0-.15-.13-.15s-.19.12-.29.37a2,2,0,0,0-.14.75A2.86,2.86,0,0,0,227.27,20a6.6,6.6,0,0,0,3.7,1q3.15,0,6.92-3.09a18.44,18.44,0,0,0,1.92-1.82q2.09-2.2,3.34-3.43l.44-.45h-2.84l.18-.26,2.89,0a32.67,32.67,0,0,1,8.33-7,17.78,17.78,0,0,1,8.53-2.23,10.11,10.11,0,0,1,1.95-.21Q264.65,2.58,264.65,3.24ZM249,5.9q0,.16-.54.78a4,4,0,0,1-2.83,1.72,1.78,1.78,0,0,1-1.39-.59,2.25,2.25,0,0,1-.54-1.56,6.8,6.8,0,0,1,1-2.65,3.18,3.18,0,0,0,.46-1.41,1.49,1.49,0,0,0-.81-1.25,3.62,3.62,0,0,0-2-.52A9.12,9.12,0,0,0,236.08,3a7.48,7.48,0,0,0-2.87,5.58A3.3,3.3,0,0,0,236.66,12,5.7,5.7,0,0,0,240,10.82a6.65,6.65,0,0,0,2.37-2.91q0-.15.12-.15c.09,0,.13,0,.13.15A2.62,2.62,0,0,1,242.1,9,7.63,7.63,0,0,1,241,10.31a6.18,6.18,0,0,1-4.44,1.95,3.6,3.6,0,0,1-2.68-1,3.71,3.71,0,0,1-1-2.72,7.62,7.62,0,0,1,3-5.73A9.58,9.58,0,0,1,242.36.15a3.54,3.54,0,0,1,2.41.76A2.64,2.64,0,0,1,245.64,3a5.33,5.33,0,0,1-.7,2.36A4.9,4.9,0,0,0,244.31,7q0,1.08,1.29,1.08,1.47,0,3-2.18c.09-.12.16-.18.22-.18A.1.1,0,0,1,249,5.9Zm11-2.83a14.74,14.74,0,0,0-7.09,2.2A37,37,0,0,0,245.39,12h5.55a26.84,26.84,0,0,1,4.53-5.86A11.09,11.09,0,0,1,260,3.06Z"/><path class="cls-1" d="M257.73,10.51q0,.58-1.83,2.32a4.24,4.24,0,0,0-.09.79,8.07,8.07,0,0,0,.78,2.7,4.11,4.11,0,0,1,.39,1.55,2.82,2.82,0,0,1-1.28,2.29,4.9,4.9,0,0,1-3,1,2.21,2.21,0,0,1-1.59-.56,2,2,0,0,1-.59-1.52,3.51,3.51,0,0,1,.79-2.14,2.13,2.13,0,0,1,1.62-1,.58.58,0,0,1,.26.06l1.17-1.44q.53-.63,1.41-1.74a5.16,5.16,0,0,1,.76-1.76q.51-.73,1-.73Q257.73,10.25,257.73,10.51Zm-2,5.78q0-.44,0-.87t0-1.24a8.55,8.55,0,0,1,.06-1.1q-.82,1-2.37,2.93a.72.72,0,0,1,.28.57q0,.86-1.42,1.17a1.82,1.82,0,0,0-1,.62,1.58,1.58,0,0,0-.42,1,1.29,1.29,0,0,0,.43,1,1.49,1.49,0,0,0,1.05.4,3,3,0,0,0,2.34-1.43A4.92,4.92,0,0,0,255.69,16.29Z"/><path class="cls-1" d="M263.57,10.51q0,.58-1.83,2.32a4.24,4.24,0,0,0-.09.79,8.05,8.05,0,0,0,.78,2.7,4.11,4.11,0,0,1,.4,1.55,2.81,2.81,0,0,1-1.28,2.29,4.9,4.9,0,0,1-3,1,2.21,2.21,0,0,1-1.59-.56,2,2,0,0,1-.59-1.52,3.51,3.51,0,0,1,.78-2.14,2.13,2.13,0,0,1,1.62-1,.58.58,0,0,1,.26.06l1.17-1.44q.53-.63,1.41-1.74a5.16,5.16,0,0,1,.76-1.76q.51-.73,1-.73Q263.57,10.25,263.57,10.51Zm-2,5.78q0-.44,0-.87t0-1.24a8.55,8.55,0,0,1,.06-1.1q-.82,1-2.37,2.93a.72.72,0,0,1,.28.57q0,.86-1.42,1.17a1.82,1.82,0,0,0-1,.62,1.58,1.58,0,0,0-.42,1,1.29,1.29,0,0,0,.42,1,1.49,1.49,0,0,0,1.05.4,3,3,0,0,0,2.34-1.43A4.91,4.91,0,0,0,261.53,16.29Z"/><path class="cls-1" d="M273.14,16.18q0,.23-.87,1.1a3.59,3.59,0,0,1-2.37,1.29,1.78,1.78,0,0,1-.81-.18q-1.93,2.74-3.63,2.74a1.92,1.92,0,0,1-1.5-.73,2.58,2.58,0,0,1-.62-1.74q0-2.26,3-4.35a6.48,6.48,0,0,1,3.43-1.48q1.26,0,1.26,1.35a7.28,7.28,0,0,1-1.77,4.06,1.25,1.25,0,0,0,.66.18,2.84,2.84,0,0,0,1.54-.61,5.3,5.3,0,0,0,1.44-1.47c.11-.14.19-.2.24-.2A.05.05,0,0,1,273.14,16.18Zm-2.38-2q0-1.19-1.07-1.19-1.33,0-3.25,2.55a7.75,7.75,0,0,0-1.92,4.29q0,1,1,1,1.58,0,3.46-2.61a1.44,1.44,0,0,1-.43-1,2.48,2.48,0,0,1,.57-1.48,1.52,1.52,0,0,1,1.11-.76q.23,0,.32.29A2.72,2.72,0,0,0,270.76,14.21Z"/><path class="cls-1" d="M280.44,16.19a16.76,16.76,0,0,1-2.07,2.46q-2.26,2.47-3.84,2.46a2.32,2.32,0,0,1-1.76-.78,2.63,2.63,0,0,1-.73-1.87,4.27,4.27,0,0,1,1-2.55,8.6,8.6,0,0,1,2.68-2.27,5,5,0,0,1,2.31-.82q1.08,0,1.08,1.29a3.59,3.59,0,0,1-.68,2q-.68,1-1.36,1a.58.58,0,0,1-.66-.66q0-.78,1.35-1.44a1.53,1.53,0,0,0,1-1.35q0-.66-.72-.66-1.22,0-3,2.42a7.45,7.45,0,0,0-1.77,4.06q0,1.38,1.29,1.38,2,0,5.48-4.56c.13-.16.22-.23.28-.23A.08.08,0,0,1,280.44,16.19Z"/><path class="cls-1" d="M285.45,16.19a1.79,1.79,0,0,1-.15.23l-.63.87q-2.76,3.83-4.21,3.83a1.52,1.52,0,0,1-1.15-.49,1.72,1.72,0,0,1-.46-1.22,6,6,0,0,1,1-2.58l2.29-3.88a3.47,3.47,0,0,0,.72.1,8.44,8.44,0,0,0,1.11-.1l-3.33,5.46a4,4,0,0,0-.72,1.83c0,.44.23.66.69.66q1.3,0,4.59-4.65c0-.1.1-.15.15-.15A.08.08,0,0,1,285.45,16.19Zm-.21-6.06a1.37,1.37,0,0,1-.43,1,1.3,1.3,0,0,1-.95.45.58.58,0,0,1-.66-.66,1.31,1.31,0,0,1,.46-.93,1.35,1.35,0,0,1,1-.45A.56.56,0,0,1,285.23,10.14Z"/><path class="cls-1" d="M295.77,16.19A14,14,0,0,1,293.63,19q-1.73,2.08-2.73,2.08a1.37,1.37,0,0,1-1.1-.51,1.9,1.9,0,0,1-.43-1.27,3.82,3.82,0,0,1,.47-1.71,20.06,20.06,0,0,1-2.24,2.77,2.28,2.28,0,0,1-1.51.72,1.6,1.6,0,0,1-1.3-.67,2.62,2.62,0,0,1-.53-1.68q0-2.81,4-5a6.29,6.29,0,0,1,2.81-1,.79.79,0,0,1,.91.88,2.54,2.54,0,0,1-.12.66l.75-1.42a3.46,3.46,0,0,0,.78.1,6.66,6.66,0,0,0,1-.1l-2.59,4.29a8.27,8.27,0,0,0-1.35,3c0,.46.19.69.57.69s1-.45,1.88-1.34a25,25,0,0,0,2.63-3.31c.06-.1.11-.15.16-.15A.08.08,0,0,1,295.77,16.19Zm-4-2.42q0-.72-.66-.72-1.35,0-3.54,2.64T285.35,20q0,1,.85,1,1,0,3.5-3.35Q291.74,14.79,291.74,13.77Z"/><path class="cls-1" d="M301.2,12.83l-.12.22h-1.92l-3.27,5.58a3.48,3.48,0,0,0-.6,1.61q0,.66.69.66,1.34,0,4.5-4.65.1-.15.18-.15a.08.08,0,0,1,.09.09,1.58,1.58,0,0,1-.15.23l-.63.87q-2.76,3.83-4.15,3.83a1.5,1.5,0,0,1-1.15-.5,1.76,1.76,0,0,1-.46-1.25,4.62,4.62,0,0,1,.78-2.2l2.46-4.13H296l.15-.22h1.46L299.28,10a3.25,3.25,0,0,0,.84.12A3.29,3.29,0,0,0,301,10l-1.69,2.84Z"/><path class="cls-1" d="M308.14,16.21a1.76,1.76,0,0,1-.26.38l-.63.79q-3,3.74-5.21,3.74a2.27,2.27,0,0,1-1.72-.74,2.6,2.6,0,0,1-.7-1.85q0-2.64,3.68-4.64a7.08,7.08,0,0,1,3.15-1.05,1.35,1.35,0,0,1,.9.31,1,1,0,0,1,.37.77q0,1.05-1.38,1.79a18,18,0,0,1-4.6,1.38,4.92,4.92,0,0,0-1,2.52q0,1.26,1.36,1.26,2.32,0,5.68-4.52.18-.23.29-.23A.08.08,0,0,1,308.14,16.21Zm-1.24-2.72c0-.31-.17-.47-.51-.47a3.64,3.64,0,0,0-2,1.08,15.14,15.14,0,0,0-2.48,2.79,11.43,11.43,0,0,0,3.57-1.53Q306.9,14.37,306.9,13.49Z"/><path class="cls-1" d="M313.08,10.51q0,.58-1.83,2.32a4.24,4.24,0,0,0-.09.79,8.05,8.05,0,0,0,.78,2.7,4.11,4.11,0,0,1,.4,1.55,2.81,2.81,0,0,1-1.28,2.29,4.9,4.9,0,0,1-3,1,2.21,2.21,0,0,1-1.59-.56,2,2,0,0,1-.59-1.52,3.51,3.51,0,0,1,.78-2.14,2.13,2.13,0,0,1,1.62-1,.58.58,0,0,1,.26.06l1.17-1.44q.53-.63,1.41-1.74a5.16,5.16,0,0,1,.76-1.76q.51-.73,1-.73Q313.08,10.25,313.08,10.51Zm-2,5.78q0-.44,0-.87t0-1.24a8.55,8.55,0,0,1,.06-1.1q-.82,1-2.37,2.93a.72.72,0,0,1,.28.57q0,.86-1.42,1.17a1.82,1.82,0,0,0-1,.62,1.58,1.58,0,0,0-.42,1,1.29,1.29,0,0,0,.42,1,1.49,1.49,0,0,0,1.05.4,3,3,0,0,0,2.34-1.43A4.91,4.91,0,0,0,311,16.29Z"/></g></g></svg>