<svg xmlns="http://www.w3.org/2000/svg" viewBox="0 0 16.36 15.48"><defs><style>.cls-1{fill:#bb814d;}</style></defs><title>Asset 8</title><g id="Layer_2" data-name="Layer 2"><g id="Layer_1-2" data-name="Layer 1"><rect class="cls-1" x="6.1" y="5.77" width="4.29" height="0.71"/><rect class="cls-1" x="6.1" y="2.57" width="4.29" height="0.71"/><path class="cls-1" d="M4.44,8.43V.71h7.48V8.43l.71.18V0H3.73V8.61Z"/><path class="cls-1" d="M4,13.68H0v1.14a.65.65,0,0,0,.65.65H4a.65.65,0,0,0,.65-.65V13.68Z"/><path class="cls-1" d="M15.71,13.68h-4v1.14a.66.66,0,0,0,.65.65h3.38a.66.66,0,0,0,.65-.65V13.68Z"/><path class="cls-1" d="M16.36,12.74c-.23-1.77-2.9-3.66-8.18-3.57C2.9,9.08.23,11,0,12.74a1,1,0,0,0,0,.11H4.69v-.11c0-.88,2.65-.88,3.49-.9s3.49,0,3.49.9v.11h4.69A.85.85,0,0,0,16.36,12.74Z"/></g></g></svg>