<svg xmlns="http://www.w3.org/2000/svg" viewBox="0 0 94.12 94.12"><defs><style>.cls-1{fill:#010101;}.cls-2{fill:#bb814d;}</style></defs><title>Asset 1</title><g id="Layer_2" data-name="Layer 2"><g id="Layer_1-2" data-name="Layer 1"><circle class="cls-1" cx="47.06" cy="47.06" r="47.06"/><path class="cls-2" d="M37,27a11.29,11.29,0,0,0,5.63-1.93c2.39-1.39,3.93-.23,4.47.31-.08,5.39-.62,15.65-3.08,21.12h8.25c-2.47-5.47-3-15.72-3.08-21.12a3.47,3.47,0,0,1,4.47-.31A11.51,11.51,0,0,0,59.31,27a3.17,3.17,0,0,0,1.85-.46A1.06,1.06,0,1,0,60,24.81s-1.46.69-5.24-1.54a5.6,5.6,0,0,0-5.55-.39V22.5a6,6,0,0,0-.15-1.16l-.77-2.16c0-.08-.15-.08-.15,0l-.77,2.16a2,2,0,0,0-.15,1.16v.39a5.74,5.74,0,0,0-5.63.39c-3.62,2.16-5.16,1.62-5.24,1.54a1.11,1.11,0,0,0-1.46.31,1,1,0,0,0,.31,1.46A3,3,0,0,0,37,27Z"/><path class="cls-2" d="M64.08,39.3H54.6c-.08,0-.15.08-.08.15a5.21,5.21,0,0,0,9.71,0A.17.17,0,0,0,64.08,39.3Z"/><path class="cls-2" d="M59.31,27.74a.52.52,0,0,0-.46.31L54.6,38.14a.47.47,0,1,0,.85.39l3.39-7.94v7.78a.46.46,0,1,0,.92,0V30.59l3.31,7.94a.52.52,0,0,0,.46.31h.15a.43.43,0,0,0,.23-.62L59.77,28A.52.52,0,0,0,59.31,27.74Z"/><path class="cls-2" d="M42,39.45c0-.08,0-.15-.08-.15H32.33c-.08,0-.15.08-.08.15a5.21,5.21,0,0,0,9.71,0Z"/><path class="cls-2" d="M32.64,38.76a.49.49,0,0,0,.62-.23l3.31-7.94v7.78a.46.46,0,1,0,.92,0V30.59l3.31,7.94a.52.52,0,0,0,.46.31h.15a.43.43,0,0,0,.23-.62l-4.24-10.1a.5.5,0,0,0-.92,0l-4.24,10.1A.67.67,0,0,0,32.64,38.76Z"/><path class="cls-2" d="M40.27,48.47v1.77H55.76V48.47a1,1,0,0,0-1-1H41.19A1,1,0,0,0,40.27,48.47Z"/><path class="cls-2" d="M72.25,56.72a1.18,1.18,0,0,0,0-1.23,1.23,1.23,0,0,0-1.08-.62H57.61v-2.7a1,1,0,0,0-1-1H39.34a1,1,0,0,0-1,1v2.62H30.71a6.78,6.78,0,0,0,0,13.56H71.17a1.23,1.23,0,0,0,1.08-.62,1,1,0,0,0,0-1.16A9.46,9.46,0,0,1,72.25,56.72ZM30.71,66a4.32,4.32,0,0,1,0-8.63H69.25a8.42,8.42,0,0,0-.39,1.31h-10a.61.61,0,0,0-.62.62.66.66,0,0,0,.62.62h9.71c-.08.39-.08.77-.15,1.16H55a.62.62,0,0,0,0,1.23H68.48a6,6,0,0,0,.15,1.16H58.84a.61.61,0,0,0-.62.62.66.66,0,0,0,.62.62h10c.15.39.23.85.39,1.31Z"/></g></g></svg>