<svg xmlns="http://www.w3.org/2000/svg" viewBox="0 0 24.19 24.19"><defs><style>.cls-1{fill:#fff;}.cls-2{fill:none;stroke:#fff;stroke-miterlimit:10;}</style></defs><title>Asset 6</title><g id="Layer_2" data-name="Layer 2"><g id="Layer_1-2" data-name="Layer 1"><path class="cls-1" d="M6.12,18.35H8.48V8.91H6.12Zm9.43-9.43a4.33,4.33,0,0,0-3.14,1.57V8.91H10.05v9.43h2.36v-5.5a2,2,0,0,1,2.36-1.57c1,.07,1.54,1.39,1.57,1.57v5.5h2.35V11.83A2.94,2.94,0,0,0,15.55,8.91ZM7.3,5.77A1.18,1.18,0,1,0,8.48,6.95,1.18,1.18,0,0,0,7.3,5.77Z"/><circle class="cls-2" cx="12.1" cy="12.1" r="11.6"/></g></g></svg>