<svg xmlns="http://www.w3.org/2000/svg" viewBox="0 0 62.54 62.54"><defs><style>.cls-1{fill:#010101;}.cls-2{fill:#bb814d;}</style></defs><title>Asset 10</title><g id="Layer_2" data-name="Layer 2"><g id="Layer_1-2" data-name="Layer 1"><circle class="cls-1" cx="31.27" cy="31.27" r="31.27"/><path class="cls-2" d="M58.55,27.17a5.6,5.6,0,0,1-.14,1.27q-.14.61-.3.61C58,29.06,58,29,58,29l0-.14a4.1,4.1,0,0,0,.25-1.59,4.87,4.87,0,0,0-1.79-3.81,6.41,6.41,0,0,0-4.37-1.56q-4.17,0-8.54,4.09a32.46,32.46,0,0,0-3,3.13q-1.2,1.44-4.69,6.08Q30.74,42,27.43,43.72a6.17,6.17,0,0,1-1.91.76c-.07,0-.1,0-.1-.12l.35-.27a8.61,8.61,0,0,0,2.64-3.31q.91-1.91,3.28-9,2-6.08,4.59-8.72a.28.28,0,0,0,.1-.17q-.22-.07-1,.73-2.52,2.5-5.91,9a43.59,43.59,0,0,1-3.67,6A17.62,17.62,0,0,1,22,42.21a12.29,12.29,0,0,1-7.2,2.57,6.75,6.75,0,0,1-3.83-1,3,3,0,0,1-1.48-2.54A2.22,2.22,0,0,1,10,39.77a1.59,1.59,0,0,1,1.27-.6,1,1,0,0,1,1.1,1.08,1.38,1.38,0,0,1-.36,1,1.13,1.13,0,0,1-.87.4q-.83,0-.83-.91c0-.23,0-.34-.14-.34s-.27.31-.27.93a2.63,2.63,0,0,0,1.38,2.27,6.43,6.43,0,0,0,3.54.89q4.41,0,8.66-4.58a30.41,30.41,0,0,0,2.89-3.59q1.18-1.75,4.72-7.61a27.44,27.44,0,0,1,3.36-4.51q1.87-2,2.66-2,.12,0,.12.1a.38.38,0,0,1-.07.14q-1.57,1.72-2.84,6.51a54.1,54.1,0,0,1-3.56,10.21,12,12,0,0,1-4.26,4.71s-.07,0-.07.07l.07,0a5.48,5.48,0,0,0,1.89-1.08,18.35,18.35,0,0,0,3.36-3.07q1.54-1.79,5.57-7.33a68.06,68.06,0,0,1,4.53-5.74,21.53,21.53,0,0,1,3.72-3.2A11.45,11.45,0,0,1,52,21.32,6.7,6.7,0,0,1,56.72,23,5.41,5.41,0,0,1,58.55,27.17Zm-26.76-.95c0,.25-.32.73-1,1.46A4,4,0,0,1,28,29.32a2.08,2.08,0,0,1-1.57-.68A2.37,2.37,0,0,1,25.8,27a5.28,5.28,0,0,1,.69-2.31,6.47,6.47,0,0,0,.86-2.38,1.59,1.59,0,0,0-.81-1.39,3.87,3.87,0,0,0-2.13-.52,10.32,10.32,0,0,0-7.08,3Q14,26.44,14,29.87a4,4,0,0,0,1.09,2.9,3.73,3.73,0,0,0,2.8,1.12A6.3,6.3,0,0,0,21,33a7.48,7.48,0,0,0,2.53-2.24q.07-.08.1-.08t.14.15q0,.34-1.08,1.3a7.1,7.1,0,0,1-4.84,2,4,4,0,0,1-3-1.18,4.22,4.22,0,0,1-1.15-3.07,9,9,0,0,1,3.39-6.74,10.8,10.8,0,0,1,7.41-3.07,3.78,3.78,0,0,1,2.59.83A2.88,2.88,0,0,1,28,23.19,8.63,8.63,0,0,1,27,26.49a3.1,3.1,0,0,0-.37,1.23Q26.59,29,28,29a3.14,3.14,0,0,0,1.85-.8,6.16,6.16,0,0,0,1.65-1.95c.06-.11.11-.17.17-.17A.12.12,0,0,1,31.79,26.22Zm18.64-3.63c0,.06-.15.16-.46.32a10.61,10.61,0,0,0-3.48,3A35.44,35.44,0,0,0,43.07,32a40.88,40.88,0,0,1-5,8.55,12.34,12.34,0,0,1-5.45,3.73,16.78,16.78,0,0,0,2.31.23,7.06,7.06,0,0,0,4.16-1.11,24.51,24.51,0,0,0,4.42-5q.19-.24.29-.24a.09.09,0,0,1,.07.1,14.66,14.66,0,0,1-1.59,2.18,13.71,13.71,0,0,1-3.47,3.37,7.33,7.33,0,0,1-3.76.9,15.63,15.63,0,0,1-3-.31,7.2,7.2,0,0,1-2.32.38c-.6,0-.9-.11-.9-.35s.42-.42,1.25-.42a13,13,0,0,1,1.82.17h.22a7.29,7.29,0,0,0,3-2,25,25,0,0,0,3-4.7A81.15,81.15,0,0,1,43.74,28a19.8,19.8,0,0,1,4.78-4.56,5,5,0,0,1,1.81-.93A.09.09,0,0,1,50.43,22.59Z"/></g></g></svg>